<svg width="89" height="16" viewBox="0 0 89 16" fill="none" xmlns="http://www.w3.org/2000/svg">
<g clip-path="url(#clip0_2059_6161)">
<path fill-rule="evenodd" clip-rule="evenodd" d="M18.6369 11.4996H19.314C20.8053 11.4996 21.4829 10.353 21.4829 8.81261C21.4829 7.2383 20.8391 6.28024 19.196 6.28024H18.6364V5.95539H19.1781C20.4996 5.95539 21.0587 4.94545 21.0587 3.62812C21.0587 2.22448 20.3138 1.24945 19.0432 1.24945H18.6369V0.924121H19.2125C21.6348 0.924121 22.9389 1.79685 22.9389 3.57624C22.9389 4.62012 22.3125 5.54473 20.9402 5.95491C22.4479 6.19442 23.4642 7.08461 23.4642 8.72727C23.4642 10.5925 22.075 11.8245 19.3987 11.8245H18.6364L18.6369 11.4996ZM15.8252 10.6948V2.05382L14.8936 0.924121H17.8238V11.825H14.8936L15.8252 10.6948ZM27.8343 5.32218C28.4099 4.26085 29.1897 3.69649 30.1551 3.69649V5.35612C29.2743 5.35612 28.4612 5.52727 27.8343 5.92097V5.32218ZM25.3104 10.6953V5.35612L24.4301 4.17552L27.1736 3.81624V10.6953L28.4443 11.825H24.4127L25.3104 10.6953ZM33.5216 0.654545C33.9086 1.05067 33.9086 1.68727 33.5216 2.08339C33.4291 2.17829 33.3188 2.25384 33.197 2.3057C33.0752 2.35755 32.9443 2.38467 32.8119 2.38548C32.6796 2.38629 32.5484 2.36078 32.426 2.31043C32.3035 2.26007 32.1923 2.18587 32.0986 2.09212C32.0038 1.9972 31.9286 1.88447 31.8773 1.76039C31.8259 1.6363 31.7995 1.50329 31.7995 1.36897C31.7995 1.23464 31.8259 1.10164 31.8773 0.977553C31.9286 0.853469 32.0038 0.740742 32.0986 0.645818C32.1923 0.552069 32.3035 0.477868 32.426 0.427513C32.5484 0.377158 32.6796 0.351648 32.8119 0.352459C32.9443 0.353271 33.0752 0.380388 33.197 0.432242C33.3188 0.484095 33.4291 0.559654 33.5216 0.654545ZM31.9501 10.6958V5.35612L31.0698 4.17552L33.8138 3.81624V10.6953L34.7115 11.825H31.0524L31.9501 10.6958ZM41.046 13.9122C41.046 13.1762 40.6058 12.8 39.4203 12.3549L38.0481 11.8759C36.9641 11.4822 36.8456 10.9348 36.8456 10.4897C36.8456 9.97673 37.2858 9.54909 37.7095 9.32606L37.9973 9.39442C37.9803 9.46327 37.9973 9.54861 38.0142 9.63442C38.0311 9.92533 38.5056 10.096 39.0982 10.3185L40.7582 10.8325C42.5542 11.4482 42.7743 12.4747 42.7743 13.2107C42.7743 14.768 41.3004 15.8802 39.369 16V15.7091C40.3519 15.5893 41.046 14.8703 41.046 13.9122ZM38.5395 3.73042V3.98739C37.9978 4.12412 37.4889 4.65455 37.4889 6.36558C37.4889 8.41939 38.2512 8.77867 38.895 8.77867C39.5219 8.77867 40.2842 8.41939 40.2842 6.36558C40.2842 4.63758 39.7589 4.12412 39.2172 3.98739V3.73042C39.5557 3.74739 39.8774 3.81624 40.1826 3.90158H42.7065L42.588 4.39806H41.1814C41.7406 4.8257 42.0961 5.47588 42.0961 6.36558C42.0961 8.17988 40.5376 8.98376 38.8945 8.98376C37.2514 8.98376 35.676 8.17988 35.676 6.36558C35.676 4.63758 37.0318 3.85018 38.5395 3.73042ZM37.1837 12.0301L37.5054 12.2012C37.2853 12.6972 37.1837 13.1253 37.1837 13.5869C37.1837 14.6652 37.709 15.5554 38.6914 15.7091V16C36.7435 15.8802 35.4559 14.9561 35.4559 13.6897C35.4559 12.9198 35.9135 12.2012 37.1837 12.0301ZM49.753 10.6953V6.43394C49.753 5.30424 49.279 4.79079 48.2961 4.79079C47.9406 4.79079 47.5 4.91055 47.009 5.23588V4.97891C47.6185 4.20897 48.3977 3.72994 49.3636 3.72994C50.82 3.72994 51.6162 4.75685 51.6162 6.48485V10.6948L52.514 11.8245H48.8891L49.753 10.6953ZM44.4682 10.6953V1.53988L43.5873 0.376242L46.3314 0V10.6953L47.1952 11.825H43.5869L44.4682 10.6953ZM53.8857 9.68533V4.39806H52.6325L55.7489 1.79685V3.90158H57.8835L57.7819 4.39806H55.7489V9.36049C55.7489 10.336 56.1388 10.7981 56.8672 10.7981C57.3074 10.7981 57.7137 10.6608 57.985 10.4213L58.1035 10.5072C57.6803 11.4822 57.0026 11.9956 55.9356 11.9956C54.7665 11.9956 53.8857 11.2427 53.8857 9.68533ZM70.0794 5.03079L69.199 3.90158H71.367L70.4354 5.03127L68.9446 9.37745L68.7753 8.93285L70.0794 5.03079ZM65.1505 6.22885L63.9306 9.39491L63.7783 8.94982L65.6922 3.90158H66.2514L68.606 10.4213L68.1146 11.8245H67.2507L65.15 6.22933L65.1505 6.22885ZM62.5753 3.90158L61.695 5.03127L63.5238 10.4383L62.999 11.825H62.1521L59.7128 5.03079L58.8151 3.90158H62.5753ZM74.1443 6.98182H76.9904C76.9735 5.20242 76.4482 4.22691 75.652 4.02133V3.73042C77.7188 3.86715 78.7859 5.28776 78.8028 7.22133L74.1448 7.25527V6.98182H74.1443ZM71.485 7.90594C71.485 5.30473 73.0773 3.90158 74.9918 3.74739V4.02133C74.1951 4.22691 73.4328 5.168 73.4328 7.52921C73.4328 9.63442 74.5003 10.6269 75.9906 10.6269C77.1766 10.6269 78.159 10.1474 78.5489 9.32606L78.7182 9.37745C78.3119 10.9518 76.9565 11.9956 75.2452 11.9956C72.9249 11.9956 71.485 10.336 71.485 7.90594ZM80.3777 9.80509V1.53988L79.4974 0.376242L82.2409 0V9.73673C82.2409 10.4213 82.5456 10.7981 83.1048 10.7981C83.4434 10.7981 83.8158 10.6608 84.0364 10.4213L84.138 10.5072C83.7994 11.4822 83.1217 11.9956 82.2235 11.9956C81.1062 11.9956 80.3772 11.2771 80.3772 9.80509" fill="white"/>
<mask id="mask0_2059_6161" style="mask-type:luminance" maskUnits="userSpaceOnUse" x="84" y="0" width="5" height="12">
<path d="M84.3584 0H88.9999V11.9956H84.3584V0Z" fill="white"/>
</mask>
<g mask="url(#mask0_2059_6161)">
<path fill-rule="evenodd" clip-rule="evenodd" d="M85.2392 9.80509V1.53988L84.3584 0.376242L87.1024 0V9.73673C87.1024 10.4213 87.4071 10.7981 87.9663 10.7981C88.3049 10.7981 88.6778 10.6608 88.8979 10.4213L88.9995 10.5072C88.6609 11.4822 87.9837 11.9956 87.0855 11.9956C85.9677 11.9956 85.2392 11.2771 85.2392 9.80509Z" fill="white"/>
</g>
<path fill-rule="evenodd" clip-rule="evenodd" d="M8.04241 7.36021H3.70608L0 11.8252H6.56859C8.32827 11.8252 9.75469 10.3847 9.75469 8.60724C9.75617 7.77561 9.43654 6.97568 8.86276 6.375L8.04241 7.36118V7.36021Z" fill="white"/>
<mask id="mask1_2059_6161" style="mask-type:luminance" maskUnits="userSpaceOnUse" x="0" y="0" width="10" height="7">
<path d="M0 0.923828H9.75469V6.37401H0V0.923828Z" fill="white"/>
</mask>
<g mask="url(#mask1_2059_6161)">
<path fill-rule="evenodd" clip-rule="evenodd" d="M9.56121 3.03535C9.34861 2.44975 8.97126 1.93847 8.47483 1.56334C7.92608 1.14768 7.25688 0.923118 6.56907 0.92383H3.70511L0 5.38783H8.04241L8.86276 6.37401C9.43642 5.77346 9.75604 4.97371 9.75469 4.14225C9.75514 3.76479 9.68966 3.39017 9.56121 3.03535Z" fill="white"/>
</g>
</g>
<defs>
<clipPath id="clip0_2059_6161">
<rect width="89" height="16" fill="white"/>
</clipPath>
</defs>
</svg>
