<svg width="66" height="16" viewBox="0 0 66 16" fill="none" xmlns="http://www.w3.org/2000/svg">
<path fill-rule="evenodd" clip-rule="evenodd" d="M7.95635 0C3.56291 0 0.000921661 3.58036 0 7.99792V8.00208C0.00046083 9.82545 0.608181 11.505 1.62984 12.8498L8.24368 4.11154L7.53181 4.1127L6.8257 4.11154C6.07109 4.11154 5.36349 4.1654 4.85208 4.26525C4.54206 4.32663 4.26637 4.43818 4.0416 4.59825C3.77777 4.78415 3.44736 5.17878 3.23111 5.56669C3.20657 5.61186 3.16971 5.67788 3.12362 5.77425L2.73733 5.68576L3.38595 3.17646H11.6709L5.08745 12.0259C5.51522 11.9878 5.68676 11.978 6.034 11.978C6.30105 11.978 6.70646 11.9954 7.24828 12.0272L8.4181 12.1C8.83873 12.1239 9.19529 12.1364 9.46626 12.1364C10.0691 12.1364 10.4612 12.0893 10.8511 11.9694C11.1536 11.8752 11.4406 11.7362 11.7026 11.5571C12.1647 11.2347 12.6143 10.7207 12.8833 10.2037C12.909 10.1519 12.9521 10.0717 13.0006 9.96595L13.3528 10.0559C13.2383 10.4946 13.178 10.6625 13.0032 11.0543C12.6494 11.8487 12.2499 12.381 11.7014 12.7886C11.1369 13.2088 10.5128 13.4147 9.77433 13.4269L9.66177 13.4282C9.11511 13.4282 8.69253 13.3821 7.38285 13.1812C6.05116 12.9749 5.37282 12.9045 4.70393 12.9045C4.25588 12.9045 3.83952 12.9387 3.40784 13.0103C2.8363 13.1009 2.61222 13.1682 2.09344 13.406C3.5462 14.9988 5.6363 16 7.95635 16C12.35 16 15.9128 12.4183 15.9128 7.99977C15.9128 3.58128 12.35 0 7.95635 0ZM48.9223 5.55418C48.9243 5.03342 48.9375 4.89072 49.0033 4.67921C49.0308 4.59416 49.0684 4.51273 49.1152 4.43667C49.1941 4.30463 49.2511 4.24139 49.4055 4.11166H46.9175C47.0785 4.25158 47.1318 4.30857 47.206 4.41941C47.2557 4.50119 47.2979 4.58528 47.3257 4.67412C47.3827 4.86199 47.4023 5.04986 47.4069 5.51294C47.4069 5.75028 47.4081 5.90676 47.4081 5.98309V10.6489C47.4081 10.9231 47.3596 11.214 47.2863 11.4038C47.2541 11.4841 47.2124 11.5603 47.1622 11.6306C47.1043 11.7163 47.0625 11.7636 46.9258 11.9054H49.386C49.2648 11.8004 49.2214 11.7517 49.1475 11.6306C49.097 11.5566 49.0555 11.4768 49.0239 11.3928C48.9579 11.216 48.9196 10.955 48.9196 10.7093V6.0117L48.9223 5.55418ZM65.4858 5.5514C65.4858 5.20519 65.5121 4.94145 65.5711 4.72566C65.5985 4.62582 65.6411 4.5291 65.6939 4.43829C65.7749 4.30498 65.8354 4.24139 66 4.11166H63.4708C63.6174 4.23467 63.668 4.29015 63.7544 4.42845C63.8098 4.51845 63.8524 4.61122 63.8829 4.70006C63.942 4.884 63.9659 5.11206 63.9659 5.51966V7.41264H60.4925V5.99166C60.4925 5.56009 60.4953 5.27862 60.5132 5.06677C60.523 4.94018 60.5434 4.82701 60.5758 4.72833C60.6286 4.56061 60.7704 4.32826 60.8963 4.19575C60.9132 4.17687 60.9453 4.14745 60.982 4.11166H58.4978C58.6468 4.26536 58.6867 4.3125 58.7527 4.412C58.8089 4.49361 58.8541 4.58229 58.8872 4.67574C58.9517 4.87299 58.9638 4.98106 58.9713 5.50032L58.9796 5.99363V10.2617C58.9796 10.6939 58.9713 10.8839 58.9481 11.0823C58.9341 11.183 58.9072 11.2859 58.8712 11.3921C58.8067 11.56 58.718 11.6916 58.5718 11.8275C58.5541 11.8457 58.5259 11.8704 58.4869 11.9054H60.9417C60.8346 11.7942 60.7979 11.747 60.7333 11.6482C60.6855 11.5711 60.644 11.4903 60.609 11.4066C60.5308 11.2002 60.5062 11.0537 60.4953 10.7226C60.4934 10.5677 60.4925 10.4127 60.4925 10.2577V8.36891H63.9659V10.271C63.9659 10.6913 63.9615 10.8445 63.9306 11.0631C63.9182 11.181 63.8915 11.2951 63.8477 11.3999C63.7915 11.5458 63.7028 11.6786 63.569 11.8083C63.5458 11.8283 63.5131 11.8633 63.4623 11.9054H65.9387C65.8366 11.8036 65.7983 11.7595 65.7318 11.6644C65.674 11.5852 65.6257 11.4993 65.588 11.4086C65.5121 11.2242 65.4948 11.0882 65.4858 10.7034C65.4812 10.4743 65.4799 10.341 65.4799 10.2998L65.4858 6.0117V5.5514ZM42.7205 7.54433C42.4441 7.70742 42.1602 7.8002 41.7447 7.85985C41.5867 7.88464 41.449 7.89738 41.3396 7.89738C41.3004 7.89738 41.2731 7.8961 41.2138 7.89135V5.00666C41.3126 5.00388 41.3497 5.00388 41.4165 5.00388C41.7963 5.00388 42.1677 5.04871 42.4585 5.1321C42.6522 5.1875 42.832 5.28368 42.9859 5.41426C43.2475 5.63908 43.3851 5.96502 43.3851 6.37134C43.3851 6.7252 43.283 7.02542 43.0821 7.25187C42.9879 7.35994 42.8652 7.45712 42.7205 7.54433ZM45.6808 11.3654C45.408 11.1043 45.164 10.8563 44.8027 10.4597C44.61 10.2523 44.4214 10.041 44.2371 9.82603L43.0329 8.40076C43.1814 8.35675 43.2425 8.33555 43.3761 8.28169C43.7676 8.12637 44.0647 7.9539 44.3324 7.7263C44.6394 7.4665 44.8278 7.18851 44.9424 6.83709C45.0065 6.64347 45.0387 6.4406 45.0378 6.23652C45.0378 5.75746 44.8615 5.32264 44.5142 4.95871C44.1951 4.62223 43.7523 4.37459 43.2545 4.25552C42.907 4.1749 42.5462 4.13714 41.9299 4.12069C41.6902 4.11465 41.4504 4.11163 41.2106 4.11166H39.2104C39.3449 4.23745 39.3949 4.29281 39.4688 4.40528C39.5271 4.49493 39.5768 4.59119 39.6064 4.68906C39.6585 4.86477 39.6799 5.1065 39.6799 5.51966V10.6335C39.6799 11.0017 39.6569 11.216 39.5943 11.3881C39.5597 11.4753 39.5148 11.558 39.4607 11.6346C39.3879 11.7265 39.3433 11.7737 39.1987 11.9054H41.6633C41.5515 11.7855 41.5175 11.747 41.449 11.6519C41.3953 11.5786 41.3511 11.4987 41.3177 11.414C41.2512 11.2416 41.2203 11.0552 41.2195 10.6939C41.2155 10.5639 41.2136 10.4337 41.2138 10.3036V8.55053L42.6504 10.2817C42.7174 10.3638 42.8256 10.4888 42.9703 10.6593C43.1391 10.8484 43.2642 10.9903 43.3515 11.0784C43.6283 11.3654 43.8914 11.5764 44.151 11.7183C44.3762 11.8382 44.5858 11.8889 44.92 11.9003C45.0467 11.9042 45.182 11.9054 45.3238 11.9054H46.2963C46.1679 11.8024 46.1129 11.7585 46.0132 11.6712C45.8997 11.5723 45.7889 11.4703 45.6808 11.3654ZM56.3597 10.7792C55.8935 10.977 55.4667 11.0682 55.0065 11.0682C54.2046 11.0682 53.5185 10.7804 53.0099 10.2297C52.5067 9.68344 52.2381 8.92628 52.2381 8.06984C52.2381 7.25384 52.4891 6.49528 52.9375 5.96699C53.1314 5.73614 53.3681 5.54248 53.6393 5.38947C54.0784 5.14345 54.5878 5.01488 55.1402 5.01488C55.6125 5.01488 56.0704 5.10813 56.532 5.29635C56.8191 5.41426 56.9234 5.47252 57.1698 5.64858V4.18278C56.9792 4.12069 56.9031 4.0995 56.6994 4.05502C56.2506 3.96027 55.8212 3.91707 55.3337 3.91707C54.501 3.91707 53.7808 4.05189 53.1255 4.33104C52.7425 4.49185 52.3837 4.70561 52.0594 4.96612C51.1042 5.74008 50.5843 6.85967 50.5843 8.15162C50.5843 9.40464 51.0856 10.4876 52.0001 11.2148C52.7553 11.8142 53.7277 12.1161 54.8958 12.1161C55.625 12.1161 56.3068 12.0068 57.0715 11.7671C57.1006 11.7585 57.1427 11.7444 57.1979 11.7265V10.3111C57.011 10.4349 56.948 10.4754 56.8366 10.5415C56.6828 10.6307 56.5235 10.7101 56.3597 10.7792ZM35.7484 4.41432C35.7973 4.49725 35.8378 4.58644 35.863 4.67921C35.9173 4.86755 35.9314 5.05739 35.9314 5.49522V8.45822C35.9314 9.09492 35.9134 9.47183 35.8657 9.78201C35.8366 9.98366 35.769 10.1778 35.6666 10.3536C35.4782 10.6708 35.1283 10.9145 34.7142 11.0209C34.5458 11.0623 34.362 11.0843 34.1634 11.0843C33.4984 11.0843 32.9272 10.8338 32.6497 10.4243C32.4362 10.106 32.3775 9.80332 32.3678 9.00226L32.3626 8.35953V6.00973C32.3626 5.55418 32.3646 5.3377 32.381 5.10535C32.3884 4.96612 32.4083 4.84543 32.4377 4.74767C32.4916 4.56837 32.6238 4.32976 32.7477 4.18278C32.7654 4.16668 32.7838 4.14548 32.8138 4.11363H30.2941C30.4489 4.24335 30.4986 4.30266 30.5748 4.42926C30.6242 4.51368 30.6611 4.60491 30.6843 4.70006C30.7151 4.81798 30.7336 4.93867 30.7374 5.05936C30.7382 5.13558 30.7398 5.29716 30.7401 5.54248L30.7441 5.99363V8.22598C30.7441 9.05484 30.7472 9.26472 30.7749 9.59761C30.82 10.1673 30.9904 10.6216 31.318 11.0345C31.9049 11.7765 32.8487 12.1652 34.052 12.1652C34.6271 12.1652 35.1843 12.0773 35.6093 11.9183C36.0562 11.7517 36.4681 11.4739 36.7634 11.1448C37.1218 10.7407 37.3279 10.2438 37.3881 9.63039C37.4276 9.27376 37.442 8.84925 37.442 8.23884V5.99722L37.4359 5.55221V5.46453C37.4359 5.12932 37.4542 4.93392 37.5019 4.75311C37.5297 4.64169 37.575 4.53542 37.636 4.43829C37.7182 4.30544 37.7763 4.24416 37.9398 4.11363H35.4685C35.6186 4.23305 35.6709 4.28934 35.7484 4.41432ZM27.2489 10.8099C26.9048 10.8732 26.515 10.9086 26.0318 10.9204C25.8688 10.9251 25.6647 10.9251 25.4117 10.9251H24.224L28.9233 4.11166H22.827L22.0784 5.77506C22.329 5.64105 22.4286 5.59425 22.6445 5.50623C22.9988 5.36574 23.3662 5.26132 23.7412 5.19453C24.0613 5.13951 24.3561 5.11392 24.8339 5.09979C25.0485 5.09272 25.2503 5.08878 25.4363 5.08878H26.3379L21.5951 11.9054H28.2994L29.0736 10.1279C28.8041 10.2835 28.7087 10.3331 28.5038 10.4274C28.104 10.6096 27.6821 10.7382 27.2489 10.8099Z" fill="white"/>
</svg>
